<?xml version="1.0" encoding="UTF-8"?>
<!DOCTYPE svg PUBLIC "-//W3C//DTD SVG 1.1//EN" "http://www.w3.org/Graphics/SVG/1.1/DTD/svg11.dtd">
<!-- Creator: CorelDRAW 2019 (64-Bit) -->
<svg xmlns="http://www.w3.org/2000/svg" xml:space="preserve" width="197.029mm" height="83.2301mm" version="1.1" style="shape-rendering:geometricPrecision; text-rendering:geometricPrecision; image-rendering:optimizeQuality; fill-rule:evenodd; clip-rule:evenodd"
viewBox="0 0 197.1198 83.2687"
 xmlns:xlink="http://www.w3.org/1999/xlink"
 xmlns:xodm="http://www.corel.com/coreldraw/odm/2003">
 <defs>
  <style type="text/css">
   <![CDATA[
    .fil8 {fill:black}
    .fil5 {fill:url(#id0)}
    .fil7 {fill:url(#id1)}
    .fil6 {fill:url(#id2)}
    .fil3 {fill:url(#id3)}
    .fil4 {fill:url(#id4)}
    .fil2 {fill:url(#id5)}
    .fil9 {fill:url(#id6)}
    .fil0 {fill:url(#id7)}
    .fil13 {fill:url(#id8)}
    .fil1 {fill:url(#id9)}
    .fil12 {fill:url(#id10)}
    .fil11 {fill:url(#id11)}
    .fil10 {fill:url(#id12)}
   ]]>
  </style>
  <linearGradient id="id0" gradientUnits="userSpaceOnUse" x1="197.3374" y1="45.4148" x2="5.3145" y2="45.4148">
   <stop offset="0" style="stop-opacity:1; stop-color:#808081"/>
   <stop offset="0.0392157" style="stop-opacity:1; stop-color:#8F8E8E"/>
   <stop offset="0.0784314" style="stop-opacity:1; stop-color:#9D9E9D"/>
   <stop offset="0.121569" style="stop-opacity:1; stop-color:#ABABAB"/>
   <stop offset="0.160784" style="stop-opacity:1; stop-color:#B8B9BA"/>
   <stop offset="0.211765" style="stop-opacity:1; stop-color:#C5C6C7"/>
   <stop offset="0.25098" style="stop-opacity:1; stop-color:#D5D4D4"/>
   <stop offset="0.278431" style="stop-opacity:1; stop-color:#E1E3E3"/>
   <stop offset="0.329412" style="stop-opacity:1; stop-color:#F2F0F0"/>
   <stop offset="0.368627" style="stop-opacity:1; stop-color:#FEFEFE"/>
   <stop offset="0.4" style="stop-opacity:1; stop-color:#FEFEFE"/>
   <stop offset="0.431373" style="stop-opacity:1; stop-color:#FEFEFE"/>
   <stop offset="0.470588" style="stop-opacity:1; stop-color:#FEFEFE"/>
   <stop offset="0.501961" style="stop-opacity:1; stop-color:#FEFEFE"/>
   <stop offset="0.529412" style="stop-opacity:1; stop-color:#FEFEFE"/>
   <stop offset="0.560784" style="stop-opacity:1; stop-color:#FEFEFE"/>
   <stop offset="0.588235" style="stop-opacity:1; stop-color:#FEFEFE"/>
   <stop offset="0.619608" style="stop-opacity:1; stop-color:#FEFEFE"/>
   <stop offset="0.658824" style="stop-opacity:1; stop-color:#FEFEFE"/>
   <stop offset="0.690196" style="stop-opacity:1; stop-color:#F4F4F4"/>
   <stop offset="0.729412" style="stop-opacity:1; stop-color:#E4E4E4"/>
   <stop offset="0.768627" style="stop-opacity:1; stop-color:#DAD9D9"/>
   <stop offset="0.811765" style="stop-opacity:1; stop-color:#C8C8C7"/>
   <stop offset="0.85098" style="stop-opacity:1; stop-color:#BDBCBC"/>
   <stop offset="0.890196" style="stop-opacity:1; stop-color:#ACACAB"/>
   <stop offset="0.921569" style="stop-opacity:1; stop-color:#A1A0A1"/>
   <stop offset="0.960784" style="stop-opacity:1; stop-color:#8F8E8F"/>
   <stop offset="1" style="stop-opacity:1; stop-color:#808081"/>
  </linearGradient>
  <linearGradient id="id1" gradientUnits="userSpaceOnUse" xlink:href="#id0" x1="197.4538" y1="45.5288" x2="5.4286" y2="45.5288">
  </linearGradient>
  <linearGradient id="id2" gradientUnits="userSpaceOnUse" xlink:href="#id0" x1="197.0719" y1="59.1445" x2="5.0487" y2="59.1445">
  </linearGradient>
  <linearGradient id="id3" gradientUnits="userSpaceOnUse" xlink:href="#id0" x1="197.1557" y1="59.1258" x2="5.1316" y2="59.1258">
  </linearGradient>
  <linearGradient id="id4" gradientUnits="userSpaceOnUse" xlink:href="#id0" x1="198.9254" y1="31.7847" x2="7.9621" y2="31.7847">
  </linearGradient>
  <linearGradient id="id5" gradientUnits="userSpaceOnUse" xlink:href="#id0" x1="196.2578" y1="31.7861" x2="4.235" y2="31.7861">
  </linearGradient>
  <linearGradient id="id6" gradientUnits="userSpaceOnUse" x1="194.254" y1="41.4279" x2="4.7187" y2="41.8377">
   <stop offset="0" style="stop-opacity:1; stop-color:#808081"/>
   <stop offset="0.0509804" style="stop-opacity:1; stop-color:#8F8E8E"/>
   <stop offset="0.109804" style="stop-opacity:1; stop-color:#9D9E9D"/>
   <stop offset="0.160784" style="stop-opacity:1; stop-color:#ABABAB"/>
   <stop offset="0.219608" style="stop-opacity:1; stop-color:#B8B9BA"/>
   <stop offset="0.270588" style="stop-opacity:1; stop-color:#C5C6C7"/>
   <stop offset="0.329412" style="stop-opacity:1; stop-color:#D5D4D4"/>
   <stop offset="0.380392" style="stop-opacity:1; stop-color:#E1E3E3"/>
   <stop offset="0.439216" style="stop-opacity:1; stop-color:#F2F0F0"/>
   <stop offset="0.490196" style="stop-opacity:1; stop-color:#FEFEFE"/>
   <stop offset="0.54902" style="stop-opacity:1; stop-color:#F4F4F4"/>
   <stop offset="0.611765" style="stop-opacity:1; stop-color:#E4E4E4"/>
   <stop offset="0.658824" style="stop-opacity:1; stop-color:#DAD9D9"/>
   <stop offset="0.721569" style="stop-opacity:1; stop-color:#C8C8C7"/>
   <stop offset="0.768627" style="stop-opacity:1; stop-color:#BDBCBC"/>
   <stop offset="0.831373" style="stop-opacity:1; stop-color:#ACACAB"/>
   <stop offset="0.890196" style="stop-opacity:1; stop-color:#A1A0A1"/>
   <stop offset="0.941176" style="stop-opacity:1; stop-color:#8F8E8F"/>
   <stop offset="1" style="stop-opacity:1; stop-color:#808081"/>
  </linearGradient>
  <radialGradient id="id7" gradientUnits="userSpaceOnUse" gradientTransform="matrix(0.202751 -1.50862 1.50862 0.202751 35 161)" cx="92.746" cy="25.9612" r="17.166" fx="92.746" fy="25.9612">
   <stop offset="0" style="stop-opacity:1; stop-color:#4F4A47"/>
   <stop offset="0.211765" style="stop-opacity:1; stop-color:#4F4A47"/>
   <stop offset="1" style="stop-opacity:1; stop-color:black"/>
  </radialGradient>
  <radialGradient id="id8" gradientUnits="userSpaceOnUse" gradientTransform="matrix(4.85803 -0.588833 0.588836 4.85806 -403 -62)" cx="99.6378" cy="31.3883" r="8.768" fx="99.6378" fy="31.3883">
   <stop offset="0" style="stop-opacity:1; stop-color:#808081"/>
   <stop offset="0.0117647" style="stop-opacity:1; stop-color:#8F8E8E"/>
   <stop offset="0.0117647" style="stop-opacity:1; stop-color:#9D9E9D"/>
   <stop offset="0.0196078" style="stop-opacity:1; stop-color:#ABABAB"/>
   <stop offset="0.0196078" style="stop-opacity:1; stop-color:#B8B9BA"/>
   <stop offset="0.0313725" style="stop-opacity:1; stop-color:#C5C6C7"/>
   <stop offset="0.0392157" style="stop-opacity:1; stop-color:#D5D4D4"/>
   <stop offset="0.0392157" style="stop-opacity:1; stop-color:#E1E3E3"/>
   <stop offset="0.0509804" style="stop-opacity:1; stop-color:#F2F0F0"/>
   <stop offset="0.0509804" style="stop-opacity:1; stop-color:#FEFEFE"/>
   <stop offset="0.160784" style="stop-opacity:1; stop-color:#F4F4F4"/>
   <stop offset="0.258824" style="stop-opacity:1; stop-color:#E4E4E4"/>
   <stop offset="0.368627" style="stop-opacity:1; stop-color:#DAD9D9"/>
   <stop offset="0.470588" style="stop-opacity:1; stop-color:#C8C8C7"/>
   <stop offset="0.580392" style="stop-opacity:1; stop-color:#BDBCBC"/>
   <stop offset="0.678431" style="stop-opacity:1; stop-color:#ACACAB"/>
   <stop offset="0.788235" style="stop-opacity:1; stop-color:#A1A0A1"/>
   <stop offset="0.890196" style="stop-opacity:1; stop-color:#8F8E8F"/>
   <stop offset="1" style="stop-opacity:1; stop-color:#808081"/>
  </radialGradient>
  <radialGradient id="id9" gradientUnits="userSpaceOnUse" gradientTransform="matrix(0.90228 0.90228 -1.27602 2.22045E-16 8 -92)" cx="100.5041" cy="-1.7829" r="73.9041" fx="100.5041" fy="-1.7829">
   <stop offset="0" style="stop-opacity:1; stop-color:#FEFEFE"/>
   <stop offset="0.0509804" style="stop-opacity:1; stop-color:#FEFEFE"/>
   <stop offset="0.101961" style="stop-opacity:1; stop-color:#FEFEFE"/>
   <stop offset="0.141176" style="stop-opacity:1; stop-color:#FEFEFE"/>
   <stop offset="0.188235" style="stop-opacity:1; stop-color:#FEFEFE"/>
   <stop offset="0.239216" style="stop-opacity:1; stop-color:#FEFEFE"/>
   <stop offset="0.290196" style="stop-opacity:1; stop-color:#FEFEFE"/>
   <stop offset="0.341176" style="stop-opacity:1; stop-color:#FEFEFE"/>
   <stop offset="0.388235" style="stop-opacity:1; stop-color:#FEFEFE"/>
   <stop offset="0.439216" style="stop-opacity:1; stop-color:#FEFEFE"/>
   <stop offset="0.501961" style="stop-opacity:1; stop-color:#F4F4F4"/>
   <stop offset="0.560784" style="stop-opacity:1; stop-color:#E4E4E4"/>
   <stop offset="0.619608" style="stop-opacity:1; stop-color:#DAD9D9"/>
   <stop offset="0.690196" style="stop-opacity:1; stop-color:#C8C8C7"/>
   <stop offset="0.74902" style="stop-opacity:1; stop-color:#BDBCBC"/>
   <stop offset="0.811765" style="stop-opacity:1; stop-color:#ACACAB"/>
   <stop offset="0.870588" style="stop-opacity:1; stop-color:#A1A0A1"/>
   <stop offset="0.941176" style="stop-opacity:1; stop-color:#8F8E8F"/>
   <stop offset="1" style="stop-opacity:1; stop-color:#808081"/>
  </radialGradient>
  <radialGradient id="id10" gradientUnits="userSpaceOnUse" gradientTransform="matrix(4.85806 -0.588837 0.588836 4.85806 -403 -62)" xlink:href="#id8" cx="99.5876" cy="31.3883" r="8.768" fx="99.5876" fy="31.3883">
  </radialGradient>
  <radialGradient id="id11" gradientUnits="userSpaceOnUse" gradientTransform="matrix(4.47671 -0.328639 0.328641 4.47673 -357 -76)" xlink:href="#id8" cx="99.7279" cy="31.3883" r="9.5587" fx="99.7279" fy="31.3883">
  </radialGradient>
  <radialGradient id="id12" gradientUnits="userSpaceOnUse" gradientTransform="matrix(4.85814 -0.588846 0.588836 4.85806 -403 -62)" xlink:href="#id8" cx="99.6207" cy="31.3883" r="8.768" fx="99.6207" fy="31.3883">
  </radialGradient>
 </defs>
 <g id="Layer_x0020_1">
  <metadata id="CorelCorpID_0Corel-Layer"/>
  <g id="_904451840">
   <path class="fil0" d="M135.7553 41.6346c0,-20.6099 -16.5998,-37.3173 -37.077,-37.3173 -20.4772,0 -37.077,16.7074 -37.077,37.3173 0,20.6097 16.5998,37.3171 37.077,37.3171 20.4772,0 37.077,-16.7074 37.077,-37.3171z"/>
   <path class="fil1" d="M98.6782 77.081c-19.5773,0 -35.4473,-15.8702 -35.4473,-35.4466 0,-19.5763 15.8701,-35.4463 35.4473,-35.4463 19.577,0 35.4468,15.8701 35.4468,35.4463 0,19.5765 -15.8699,35.4466 -35.4468,35.4466zm97.1099 -55.6769l0 0 -61.4867 0c-7.0463,-12.3798 -20.3596,-20.7295 -35.623,-20.7295 -15.2643,0 -28.5774,8.3497 -35.6234,20.7295l-61.738 0c0,0 1.8353,2.5817 5.2668,6.7375l0.0145 0c1.5406,1.866 3.4032,4.0493 5.5658,6.4586l-0.0144 0c2.0103,2.2399 4.281,4.6757 6.7927,7.2336l0.0139 0c2.0474,2.0849 4.2561,4.2508 6.616,6.4584l-0.0144 0c2.5429,2.3793 5.2615,4.807 8.1445,7.2337l0.0144 0c2.5728,2.1655 5.2767,4.3301 8.1029,6.4585l-0.0147 0c3.1773,2.3931 6.509,4.7404 9.984,6.9921l16.3914 0c7.4993,8.3588 18.3842,13.6177 30.498,13.6177 12.1134,0 22.9983,-5.2589 30.4975,-13.6177l16.1538 0c30.8752,-20.0054 50.4718,-47.5723 50.4718,-47.5723l-0.0134 0z"/>
   <path class="fil2" d="M140.2959 34.5459l45.3974 0.1719c1.5669,-1.6788 3.4752,-4.1358 4.9855,-5.8633l-51.849 0.213c0.5591,1.6739 1.1314,3.7493 1.4661,5.4784z"/>
   <path class="fil3" d="M138.9912 56.2387c-0.6774,1.7536 -1.7389,4.0841 -2.6541,5.7331l19.4784 0.0413c2.2993,-1.6547 4.96,-4.023 7.1812,-5.7744l-24.0055 0z"/>
   <path class="fil4" d="M6.4556 28.8545c1.509,1.7275 3.4917,4.1816 5.058,5.8605l47.0251 -0.0919c0.3341,-1.7291 -1.3536,-4.0947 -0.7945,-5.7686l-51.2887 0z"/>
   <path class="fil5" d="M19.522 42.5466c1.8018,1.7334 3.5558,4.0638 5.418,5.7366l31.9311 -0.0024c-0.2515,-1.6931 -0.2465,-4.0241 -0.2825,-5.7342l-37.0666 0z"/>
   <path class="fil6" d="M34.1122 56.1934c2.2215,1.7513 4.8237,4.2476 7.1228,5.9022l20.2723 -0.0736c-0.915,-1.6492 -2.4574,-4.0298 -3.1342,-5.7834l-24.2609 -0.0452z"/>
   <path class="fil7" d="M172.1494 48.511c1.8624,-1.673 3.6605,-4.2312 5.4624,-5.9644l-35.925 0c-0.0348,1.7101 -0.5953,4.2475 -0.8466,5.9406l31.3092 0.0238z"/>
   <path class="fil8" d="M140.6024 34.5525c-0.3253,-1.7334 -0.6651,-3.0617 -1.2068,-4.7399l50.2527 0 0.4085 -1.0049 -51.6635 0c0.5401,1.6739 1.0252,4.0944 1.349,5.8235l0.8601 -0.0787z"/>
   <path class="fil8" d="M136.661 61.9861c0.8855,-1.6483 1.4741,-3.0324 2.1286,-4.785l0.0013 -0.0044 23.1174 0 1.044 -0.9997 -25.168 -0.0052c-0.6557,1.7535 -1.8504,4.0779 -2.736,5.727l1.6126 0.0673z"/>
   <path class="fil8" d="M141.0284 48.4771c0.2432,-1.6982 0.3359,-3.2572 0.3709,-4.9724l35.6013 0 1.1865 -0.9716 -37.7929 -0.0334c-0.035,1.7103 -0.3629,4.2893 -0.6061,5.9824l1.2403 -0.005z"/>
   <path class="fil8" d="M7.6307 29.8567l50.568 0c-0.5427,1.678 -0.9259,3.1328 -1.251,4.866l0.9533 0.0115c0.3235,-1.7291 0.7588,-4.2086 1.2998,-5.8825l-52.122 0 0.5518 1.0051z"/>
   <path class="fil8" d="M19.9079 43.5487l36.2863 0c0.035,1.7151 0.1737,3.122 0.4173,4.8202l1.1444 0.0059c-0.2434,-1.6931 -0.5216,-4.1209 -0.5568,-5.831l-37.8623 0 0.5711 1.0049z"/>
   <path class="fil8" d="M34.9869 57.2407l23.8159 0c0.6569,1.7591 1.3292,3.2636 2.2172,4.918l1.3795 0.002c-0.8857,-1.6492 -1.9349,-4.1713 -2.5897,-5.9248l-25.3855 0 0.5625 1.0049z"/>
   <path class="fil8" d="M134.691 20.7296c-3.4692,-5.9597 -8.3581,-10.9695 -14.2313,-14.5838 -3.1036,-1.9098 -6.4634,-3.4107 -9.9586,-4.4429 -3.8385,-1.1328 -7.8204,-1.7064 -11.8227,-1.7029 -3.2768,-0.0021 -6.5423,0.3815 -9.7296,1.1431 -3.5491,0.8492 -6.9702,2.1652 -10.1735,3.9136 -6.7,3.6559 -12.2712,9.0761 -16.1102,15.6728l-62.6651 0 0.7698 1.0688c0.3858,0.5356 0.779,1.0659 1.1793,1.5906 0.6681,0.8783 1.3476,1.7538 2.0358,2.6178 0.7517,0.9433 1.5122,1.8799 2.2812,2.8092l0.0151 0c1.4316,1.7268 2.891,3.4302 4.3777,5.1097l-0.0209 0 1.0099 1.125c2.3376,2.6039 4.5561,4.9576 7.0115,7.4574l0.0143 0c1.7051,1.732 3.4386,3.4354 5.2004,5.1098l-0.0235 0 1.2463 1.1666c2.7758,2.5987 5.4485,4.964 8.3593,7.4157l0.0145 0c2.0807,1.7479 4.1981,3.4516 6.3509,5.1097l-0.0309 0 1.608 1.2128c3.2575,2.457 6.6006,4.7982 10.0229,7.0195l0.1676 0.1088 16.2913 0c3.6914,4.0574 8.1461,7.348 13.1093,9.6838 2.6297,1.237 5.3829,2.1926 8.2136,2.8508 3.1065,0.7223 6.2858,1.0858 9.475,1.0831 2.6107,0.0012 5.2158,-0.2419 7.781,-0.726 8.8697,-1.6747 16.9405,-6.2169 23.016,-12.8917l16.0545 0c2.599,-1.6858 4.9908,-3.3213 7.497,-5.1384 2.6716,-1.9369 5.2921,-3.9447 7.8558,-6.0213 3.6968,-2.9938 7.2876,-6.1152 10.7666,-9.3585 5.7878,-5.3926 11.3604,-11.1719 16.5395,-17.1692 1.8733,-2.1679 3.741,-4.4221 5.5176,-6.681 0.473,-0.601 0.9407,-1.2059 1.4031,-1.8146 0.8022,-1.0518 1.2778,-1.7219 2.0103,-2.7383l-62.4288 0zm61.0971 0.6745l0 0 0.0134 0c-0.4018,0.5574 -0.8103,1.1091 -1.2283,1.6549 -0.4609,0.6061 -0.9259,1.2084 -1.3962,1.8066 -4.4063,5.6027 -9.4563,11.2827 -14.439,16.3948 -2.4564,2.5198 -4.9734,4.9802 -7.5482,7.3788 -3.4683,3.2327 -7.0469,6.3438 -10.7316,9.3278 -2.5559,2.0689 -5.1655,4.0693 -7.8263,5.9996 -2.3906,1.7329 -4.8254,3.4036 -7.3022,5.0098l-16.1538 0c-5.9978,6.6857 -14.0168,11.2365 -22.8415,12.9033 -2.5241,0.4764 -5.0875,0.7155 -7.656,0.7144 -3.1377,0.002 -6.2655,-0.3556 -9.3219,-1.0656 -8.1591,-1.8973 -15.5603,-6.2891 -21.1761,-12.5521l-16.3914 0c-3.4091,-2.2126 -6.7391,-4.5448 -9.984,-6.9921l0.0147 0c-2.7589,-2.0794 -5.4607,-4.2331 -8.1029,-6.4585l-0.0144 0c-2.7777,-2.3396 -5.4933,-4.7517 -8.1445,-7.2337l0.0144 0c-2.2506,-2.1059 -4.4565,-4.2592 -6.616,-6.4584l-0.0139 0c-2.318,-2.3602 -4.5828,-4.7719 -6.7927,-7.2336l0.0144 0c-1.8994,-2.1144 -3.7549,-4.2677 -5.5658,-6.4586l-0.0145 0c-1.6312,-1.9744 -3.7669,-4.6552 -5.2668,-6.7375l61.738 0c5.5775,-9.7919 14.9915,-16.959 26.0507,-19.6048 3.1359,-0.7494 6.3487,-1.1269 9.5727,-1.1247 3.9376,-0.0035 7.8552,0.5608 11.6319,1.6753 10.114,2.9885 18.7378,9.8323 23.9911,19.0542l61.4867 0z"/>
   <path class="fil9" d="M98.6784 72.9851c-17.3152,0 -31.3513,-14.0364 -31.3513,-31.3507 0,-17.3144 14.0361,-31.3509 31.3513,-31.3509 17.3149,0 31.3515,14.0365 31.3515,31.3509 0,17.3143 -14.0366,31.3507 -31.3515,31.3507zm0 -65.2219l0 0c-18.7072,0 -33.8719,15.1649 -33.8719,33.8712 0,18.7065 15.1647,33.8714 33.8719,33.8714 18.7071,0 33.8719,-15.1649 33.8719,-33.8714 0,-18.7063 -15.1648,-33.8712 -33.8719,-33.8712z"/>
   <polygon class="fil10" points="94.3935,50.5024 98.678,50.5024 98.678,32.9666 94.3935,32.9666 "/>
   <polygon class="fil11" points="86.2323,32.9666 85.7997,32.9666 80.8293,44.5172 76.2724,32.9666 71.4341,32.9666 71.4341,50.5024 75.1092,50.5024 75.1092,39.9489 79.3069,50.5024 81.8269,50.5024 86.2323,40.1867 86.2323,50.5024 90.5516,50.5024 90.5516,32.9666 "/>
   <polygon class="fil12" points="113.8715,43.6246 113.8715,43.6321 105.6714,32.9666 102.4635,32.9666 102.4635,50.5024 106.1386,50.5024 106.1386,39.9261 114.2874,50.5024 117.5992,50.5024 117.5992,32.9666 113.8715,32.9666 "/>
   <polygon class="fil13" points="121.4474,50.5024 125.7322,50.5024 125.7322,32.9666 121.4474,32.9666 "/>
  </g>
 </g>
</svg>
